<mxfile host="app.diagrams.net" modified="2024-03-30T16:55:47.212Z" agent="Mozilla/5.0 (Windows NT 10.0; Win64; x64) AppleWebKit/537.36 (KHTML, like Gecko) Chrome/122.0.0.0 Safari/537.36 OPR/108.0.0.0" etag="OYs8SMnImGpqStP2sBcx" version="24.2.1" type="github">
  <diagram name="Page-1" id="ZDNNRLV603nkIxV9F6Sn">
    <mxGraphModel dx="1432" dy="809" grid="1" gridSize="10" guides="1" tooltips="1" connect="1" arrows="1" fold="1" page="0" pageScale="1" pageWidth="850" pageHeight="1100" math="0" shadow="0">
      <root>
        <mxCell id="0" />
        <mxCell id="1" parent="0" />
      </root>
    </mxGraphModel>
  </diagram>
</mxfile>
